<svg width="26" height="26" viewBox="0 0 26 26" fill="none" xmlns="http://www.w3.org/2000/svg">
<path d="M23.5625 20.3125H21.9375V18.6875H22.75V15.4375H19.5V16.25H17.875V14.625C17.875 14.4095 17.9606 14.2028 18.113 14.0505C18.2653 13.8981 18.472 13.8125 18.6875 13.8125H23.5625C23.778 13.8125 23.9847 13.8981 24.137 14.0505C24.2894 14.2028 24.375 14.4095 24.375 14.625V19.5C24.375 19.7155 24.2894 19.9222 24.137 20.0745C23.9847 20.2269 23.778 20.3125 23.5625 20.3125Z" fill="#A1A3A5"/>
<path d="M19.5 24.3751H14.625C14.4095 24.3751 14.2028 24.2895 14.0505 24.1371C13.8981 23.9847 13.8125 23.778 13.8125 23.5626V18.6876C13.8125 18.4721 13.8981 18.2654 14.0505 18.113C14.2028 17.9607 14.4095 17.8751 14.625 17.8751H19.5C19.7155 17.8751 19.9221 17.9607 20.0745 18.113C20.2269 18.2654 20.3125 18.4721 20.3125 18.6876V23.5626C20.3125 23.778 20.2269 23.9847 20.0745 24.1371C19.9221 24.2895 19.7155 24.3751 19.5 24.3751ZM15.4375 22.7501H18.6875V19.5001H15.4375V22.7501ZM12.1875 16.1347C11.6004 15.9817 11.068 15.6671 10.6507 15.2267C10.2334 14.7864 9.94796 14.2378 9.82677 13.6433C9.70557 13.0489 9.75349 12.4323 9.96508 11.8638C10.1767 11.2952 10.5434 10.7973 11.0238 10.4267C11.5041 10.056 12.0787 9.82753 12.6824 9.76707C13.2861 9.70662 13.8946 9.81664 14.4389 10.0846C14.9832 10.3526 15.4414 10.7679 15.7615 11.2832C16.0817 11.7986 16.2509 12.3934 16.25 13.0001H17.875C17.8759 12.0704 17.611 11.1599 17.1115 10.3758C16.612 9.59172 15.8987 8.96683 15.0558 8.57479C14.2128 8.18275 13.2754 8.03991 12.3539 8.16312C11.4324 8.28633 10.5654 8.67045 9.85509 9.27018C9.14475 9.86992 8.6207 10.6603 8.34473 11.548C8.06877 12.4358 8.0524 13.3839 8.29756 14.2807C8.54271 15.1774 9.03917 15.9854 9.72838 16.6093C10.4176 17.2332 11.2708 17.647 12.1875 17.8019V16.1347Z" fill="#A1A3A5"/>
<path d="M23.4731 11.0094L21.5963 12.6587L20.4425 11.505L22.4006 9.7825L20.4831 6.4675L17.6881 7.41C17.0334 6.86503 16.2919 6.43383 15.4944 6.13438L14.9175 3.25H11.0825L10.5056 6.13438C9.70174 6.42546 8.95613 6.85741 8.30375 7.41L5.51687 6.4675L3.59937 9.7825L5.80937 11.7244C5.65906 12.5654 5.65906 13.4265 5.80937 14.2675L3.59937 16.2175L5.51687 19.5325L8.31187 18.59C8.96659 19.135 9.70815 19.5662 10.5056 19.8656L11.0825 22.75H12.1875V24.375H11.0825C10.7067 24.3747 10.3427 24.2442 10.0524 24.0057C9.762 23.7672 9.56327 23.4354 9.49 23.0669L9.07562 21.0194C8.70777 20.84 8.3522 20.6364 8.01125 20.41L6.03687 21.0763C5.86898 21.1309 5.69343 21.1583 5.51687 21.1575C5.23146 21.1595 4.9507 21.0852 4.7036 20.9424C4.45649 20.7995 4.252 20.5933 4.11125 20.345L2.19375 17.03C2.0041 16.7042 1.93363 16.3226 1.9944 15.9505C2.05518 15.5785 2.24341 15.2391 2.52687 14.9906L4.08688 13.6256C4.07063 13.4144 4.0625 13.2113 4.0625 13C4.0625 12.7887 4.07875 12.5856 4.095 12.3825L2.52687 11.0094C2.24341 10.7609 2.05518 10.4215 1.9944 10.0495C1.93363 9.67741 2.0041 9.2958 2.19375 8.97L4.11125 5.655C4.252 5.4067 4.45649 5.20048 4.7036 5.05764C4.9507 4.91481 5.23146 4.84054 5.51687 4.8425C5.69343 4.84169 5.86898 4.86912 6.03687 4.92375L8.00313 5.59C8.34686 5.36356 8.70514 5.15999 9.07562 4.98063L9.49 2.93312C9.56327 2.56458 9.762 2.23283 10.0524 1.99432C10.3427 1.75581 10.7067 1.6253 11.0825 1.625H14.9175C15.2933 1.6253 15.6573 1.75581 15.9476 1.99432C16.238 2.23283 16.4367 2.56458 16.51 2.93312L16.9244 4.98063C17.2922 5.16004 17.6478 5.36361 17.9887 5.59L19.9631 4.92375C20.131 4.86912 20.3066 4.84169 20.4831 4.8425C20.7685 4.84054 21.0493 4.91481 21.2964 5.05764C21.5435 5.20048 21.748 5.4067 21.8888 5.655L23.8062 8.97C23.9959 9.2958 24.0664 9.67741 24.0056 10.0495C23.9448 10.4215 23.7566 10.7609 23.4731 11.0094Z" fill="#A1A3A5"/>
</svg>
