<svg width="22" height="22" viewBox="0 0 22 22" fill="none" xmlns="http://www.w3.org/2000/svg">
<path d="M12.625 15.875C12.625 16.0905 12.5394 16.2972 12.387 16.4495C12.2347 16.6019 12.028 16.6875 11.8125 16.6875C11.3815 16.6875 10.9682 16.5163 10.6635 16.2115C10.3587 15.9068 10.1875 15.4935 10.1875 15.0625V11C9.97202 11 9.76535 10.9144 9.61298 10.762C9.46061 10.6096 9.375 10.403 9.375 10.1875C9.375 9.97201 9.46061 9.76535 9.61298 9.61298C9.76535 9.4606 9.97202 9.375 10.1875 9.375C10.6185 9.375 11.0318 9.5462 11.3366 9.85095C11.6413 10.1557 11.8125 10.569 11.8125 11V15.0625C12.028 15.0625 12.2347 15.1481 12.387 15.3005C12.5394 15.4528 12.625 15.6595 12.625 15.875ZM21.5625 11C21.5625 13.0891 20.943 15.1312 19.7824 16.8682C18.6218 18.6052 16.9721 19.959 15.0421 20.7585C13.1121 21.5579 10.9883 21.7671 8.93936 21.3595C6.89044 20.952 5.00838 19.946 3.53119 18.4688C2.054 16.9916 1.04802 15.1096 0.64046 13.0606C0.232904 11.0117 0.442077 8.88795 1.24153 6.95791C2.04098 5.02786 3.3948 3.37822 5.13179 2.2176C6.86879 1.05698 8.91094 0.4375 11 0.4375C13.8004 0.440457 16.4853 1.55424 18.4656 3.53445C20.4458 5.51466 21.5595 8.19956 21.5625 11ZM19.9375 11C19.9375 9.23233 19.4133 7.50435 18.4313 6.03459C17.4492 4.56483 16.0534 3.41928 14.4202 2.74283C12.7871 2.06637 10.9901 1.88938 9.25638 2.23423C7.52268 2.57909 5.93017 3.4303 4.68024 4.68023C3.43031 5.93016 2.57909 7.52268 2.23424 9.25638C1.88938 10.9901 2.06637 12.7871 2.74283 14.4202C3.41929 16.0533 4.56483 17.4492 6.0346 18.4313C7.50436 19.4133 9.23233 19.9375 11 19.9375C13.3696 19.9348 15.6413 18.9923 17.3168 17.3168C18.9923 15.6413 19.9348 13.3695 19.9375 11ZM10.5938 7.75C10.8348 7.75 11.0704 7.67852 11.2709 7.5446C11.4713 7.41069 11.6275 7.22034 11.7197 6.99764C11.812 6.77495 11.8361 6.5299 11.7891 6.29348C11.7421 6.05707 11.626 5.83991 11.4555 5.66946C11.2851 5.49902 11.0679 5.38294 10.8315 5.33592C10.5951 5.28889 10.3501 5.31303 10.1274 5.40527C9.90466 5.49752 9.71432 5.65373 9.5804 5.85415C9.44648 6.05457 9.375 6.2902 9.375 6.53125C9.375 6.85448 9.50341 7.16448 9.73197 7.39304C9.96053 7.6216 10.2705 7.75 10.5938 7.75Z" fill="#A1A3A5"/>
</svg>
