<svg width="24" height="24" viewBox="0 0 24 24" fill="none" xmlns="http://www.w3.org/2000/svg">
<path d="M22.4731 10.0094L20.5963 11.6587L19.4425 10.505L21.4006 8.7825L19.4831 5.4675L16.6881 6.41C16.0334 5.86503 15.2919 5.43383 14.4944 5.13438L13.9175 2.25H10.0825L9.50562 5.13438C8.70174 5.42546 7.95613 5.85741 7.30375 6.41L4.51687 5.4675L2.59937 8.7825L4.80937 10.7244C4.65906 11.5654 4.65906 12.4265 4.80937 13.2675L2.59937 15.2175L4.51687 18.5325L7.31187 17.59C7.96659 18.135 8.70815 18.5662 9.50562 18.8656L10.0825 21.75H11.1875V23.375H10.0825C9.70675 23.3747 9.34271 23.2442 9.05235 23.0057C8.762 22.7672 8.56327 22.4354 8.49 22.0669L8.07562 20.0194C7.70777 19.84 7.3522 19.6364 7.01125 19.41L5.03687 20.0763C4.86898 20.1309 4.69343 20.1583 4.51687 20.1575C4.23146 20.1595 3.9507 20.0852 3.7036 19.9424C3.45649 19.7995 3.252 19.5933 3.11125 19.345L1.19375 16.03C1.0041 15.7042 0.933629 15.3226 0.994402 14.9505C1.05518 14.5785 1.24341 14.2391 1.52687 13.9906L3.08688 12.6256C3.07063 12.4144 3.0625 12.2113 3.0625 12C3.0625 11.7887 3.07875 11.5856 3.095 11.3825L1.52687 10.0094C1.24341 9.76085 1.05518 9.42151 0.994402 9.04946C0.933629 8.67741 1.0041 8.2958 1.19375 7.97L3.11125 4.655C3.252 4.4067 3.45649 4.20048 3.7036 4.05764C3.9507 3.91481 4.23146 3.84054 4.51687 3.8425C4.69343 3.84169 4.86898 3.86912 5.03687 3.92375L7.00313 4.59C7.34686 4.36356 7.70514 4.15999 8.07562 3.98063L8.49 1.93312C8.56327 1.56458 8.762 1.23283 9.05235 0.994319C9.34271 0.755814 9.70675 0.625302 10.0825 0.625H13.9175C14.2933 0.625302 14.6573 0.755814 14.9476 0.994319C15.238 1.23283 15.4367 1.56458 15.51 1.93312L15.9244 3.98063C16.2922 4.16004 16.6478 4.36361 16.9887 4.59L18.9631 3.92375C19.131 3.86912 19.3066 3.84169 19.4831 3.8425C19.7685 3.84054 20.0493 3.91481 20.2964 4.05764C20.5435 4.20048 20.748 4.4067 20.8888 4.655L22.8062 7.97C22.9959 8.2958 23.0664 8.67741 23.0056 9.04946C22.9448 9.42151 22.7566 9.76085 22.4731 10.0094Z" fill="#A1A3A5"/>
</svg>
