<svg width="119" height="33" viewBox="0 0 119 33" fill="none" xmlns="http://www.w3.org/2000/svg">
<path fill-rule="evenodd" clip-rule="evenodd" d="M11.2851 0.00485055C11.8368 0.0220199 12.0148 0.0649434 12.3085 0.262391C12.5042 0.391162 12.7801 0.580025 13.1717 0.880489H17.7635C22.0795 0.880489 22.3821 0.889074 22.6757 1.0436C22.8448 1.12945 23.6635 1.85056 24.5 2.64894C25.4433 3.54174 26.1374 4.14267 26.3421 4.21993C26.6358 4.34012 27.4189 4.35729 32.2599 4.35729C35.3389 4.36587 38.4447 4.40021 39.1833 4.44314C39.9931 4.48606 40.794 4.58908 41.23 4.70068C41.6216 4.79511 42.2445 5.00973 42.6094 5.18142C42.9742 5.35311 43.4993 5.65358 43.7662 5.85961C44.0332 6.05706 44.4692 6.45195 44.7362 6.72667C44.9943 7.00138 45.3858 7.50787 45.5994 7.83409C45.813 8.16031 46.16 8.82133 46.3736 9.29349C46.5961 9.76565 46.9164 10.5383 47.1033 11.0104C47.2813 11.4826 47.486 11.929 47.5483 11.9977C47.6195 12.0663 47.7262 12.1007 47.7885 12.0749C47.8508 12.0406 47.9932 11.7916 48.1 11.5169C48.2068 11.2336 48.3581 10.7786 48.4382 10.4953C48.5183 10.2121 48.6606 9.86866 48.7496 9.72272C48.8297 9.57678 49.0967 9.37075 49.337 9.25915C49.7463 9.0617 49.8264 9.05312 50.7964 9.10463C51.357 9.13896 52.06 9.22481 52.3537 9.30207C52.6474 9.37934 53.0122 9.49952 53.1546 9.5682C53.297 9.63688 53.5551 9.81715 53.7152 9.97168C53.8754 10.1176 54 10.3237 54 10.4267C54 10.5726 53.9288 10.6413 53.7152 10.7014C53.5551 10.7443 53.1813 10.8301 52.8876 10.8817C52.594 10.9418 51.971 11.1049 51.5083 11.2422C51.0455 11.3882 50.387 11.6371 50.0489 11.8174C49.7107 11.9891 49.3192 12.2638 49.1768 12.4269C49.0433 12.59 48.9276 12.8132 48.9276 12.9248C48.9276 13.0278 49.0077 13.148 49.1056 13.1995C49.2035 13.251 49.3903 13.2854 49.5327 13.2854C49.6662 13.294 50.0133 13.4141 50.298 13.5687C50.5828 13.7232 51.0278 14.0408 51.2858 14.2726C51.5439 14.513 51.8465 14.8993 51.971 15.1311C52.0956 15.3715 52.2736 15.7921 52.3626 16.0754C52.505 16.5476 52.5228 17.1141 52.5584 22.4281C52.5762 26.3856 52.5584 28.3687 52.4961 28.5919C52.4427 28.7636 52.3003 29.0125 52.1846 29.1499C52.0333 29.313 51.9443 29.5534 51.8821 29.9826C51.8376 30.3174 51.7486 30.6951 51.6774 30.8411C51.6062 30.9784 51.4282 31.1759 51.2858 31.2703C51.0367 31.442 50.8587 31.4592 48.1712 31.5278C46.605 31.5622 44.8163 31.5708 44.1934 31.5364C43.4993 31.5021 42.9297 31.4334 42.7428 31.3561C42.5738 31.2875 42.3691 31.1415 42.2979 31.0385C42.2267 30.9269 42.1021 30.6264 42.0309 30.3689C41.9597 30.1114 41.8707 29.8624 41.8263 29.8281C41.7907 29.7937 41.2656 29.7508 40.6516 29.7336C39.9486 29.7251 39.3078 29.6564 38.9163 29.5534C38.5692 29.4675 37.3145 29.0555 36.1131 28.6348C34.9118 28.2056 33.568 27.7849 33.132 27.6991C32.9507 27.6612 32.758 27.6302 32.5099 27.6058C30.9739 27.455 29.4846 28.1327 28.371 29.2014C27.4189 30.12 26.5379 30.9183 26.4133 30.9784C26.2353 31.0814 25.0251 31.0986 13.2607 31.0986L12.878 31.3819C12.6644 31.5364 12.3263 31.7425 12.1305 31.8283C11.9347 31.9227 11.5877 32 11.3563 32C11.116 32 10.7956 31.9485 10.6444 31.8884C10.4842 31.8197 10.2172 31.6566 10.0481 31.5193C9.87906 31.3819 9.66548 31.1158 9.58539 30.9269C9.4964 30.7381 9.41631 30.4118 9.41631 30.1972C9.41631 29.974 9.5053 29.6306 9.62099 29.3817C9.73667 29.1499 9.96805 28.8494 10.1371 28.7206C10.3062 28.5919 10.5999 28.4374 10.7956 28.3858C10.9914 28.3343 11.3296 28.3172 11.5521 28.3429C11.8101 28.3773 12.2017 28.549 13.3763 29.2529L25.7014 29.21L26.4578 28.4803C26.876 28.0768 27.2142 27.6991 27.2142 27.6476C27.2142 27.5703 27.0095 27.5274 26.5735 27.5188C26.2175 27.5016 25.5234 27.5188 24.1441 27.5961L23.6368 27.9909C23.3431 28.2227 22.9516 28.4374 22.7469 28.4889C22.5333 28.5404 22.2219 28.5575 22.0528 28.5318C21.8837 28.4974 21.5545 28.3601 21.3231 28.2227C21.0472 28.0596 20.807 27.8193 20.6557 27.5617C20.4688 27.2355 20.4154 27.038 20.4154 26.6346C20.4154 26.274 20.4688 26.0165 20.6112 25.7589C20.718 25.5529 20.9404 25.2954 21.1006 25.1838C21.2519 25.0722 21.5278 24.9434 21.6968 24.8833C21.8659 24.8318 22.1507 24.7889 22.3198 24.7889C22.4888 24.7889 22.7736 24.8318 22.9427 24.8833C23.1118 24.9434 23.3965 25.0979 23.5656 25.2267C23.7347 25.3554 24.0284 25.5271 24.2152 25.5958C24.5089 25.716 25.5946 25.7332 34.0664 25.7332C42.7784 25.7332 43.6149 25.7418 43.8819 25.8791C44.0332 25.9564 44.3624 26.1538 44.6116 26.3255C45.021 26.6088 45.1011 26.6346 45.6884 26.6346C46.2579 26.6346 46.3736 26.6088 46.7207 26.377C46.9698 26.2053 47.1923 25.9564 47.3525 25.6473C47.5483 25.2868 47.6017 25.0807 47.575 24.7889C47.5572 24.5571 47.4415 24.2309 47.2724 23.9733C47.0944 23.69 46.8719 23.4754 46.6139 23.3295C46.3113 23.1749 46.0799 23.1148 45.6795 23.1148C45.2256 23.1148 45.0655 23.1578 44.6294 23.4153C44.3447 23.5784 43.9887 23.7844 43.8285 23.8703C43.5526 24.0248 42.9297 24.0248 12.7267 23.9733L12.2996 24.3682C12.0504 24.6 11.7122 24.806 11.5076 24.8661C11.3118 24.9176 10.9736 24.9606 10.7512 24.9606C10.5287 24.9606 10.1905 24.8833 9.99474 24.7974C9.79897 24.7202 9.5231 24.5141 9.38071 24.351C9.24723 24.1879 9.06925 23.9218 8.99806 23.7587C8.91797 23.5698 8.88237 23.278 8.90017 22.9861C8.92687 22.6427 9.00696 22.4109 9.20274 22.1362C9.34512 21.9387 9.63878 21.6554 9.86126 21.5095C10.2261 21.2777 10.3151 21.2606 10.8935 21.2863C11.4364 21.3121 11.5699 21.3464 11.8546 21.5696C12.0415 21.707 12.3174 21.913 12.4775 22.0246C12.7534 22.2134 12.7712 22.2135 16.0638 22.2135C19.3208 22.2135 19.3831 22.2135 19.3831 22.0418C19.3831 21.9387 19.1162 21.6469 18.6712 21.2691C18.2174 20.8828 17.8347 20.6425 17.6211 20.5909C17.4343 20.5394 14.4798 20.5137 10.6177 20.5223C4.11254 20.5394 3.93456 20.548 3.66759 20.7111C3.50741 20.8056 3.20485 20.9858 3.00018 21.1232C2.73914 21.2777 2.43064 21.375 2.07469 21.4151C1.61194 21.4666 1.47846 21.4408 1.05131 21.2434C0.69535 21.0803 0.490674 20.9172 0.321594 20.651C0.18811 20.445 0.0546258 20.1274 0.0190301 19.9385C-0.00766674 19.7496 -0.00766728 19.4578 0.0279285 19.2947C0.0546253 19.1315 0.170312 18.8397 0.277099 18.6508C0.392786 18.4534 0.650856 18.213 0.908925 18.0499C1.28268 17.8267 1.43396 17.7923 1.9412 17.7923C2.45734 17.7923 2.58193 17.8267 2.91119 18.0499C3.12476 18.1958 3.42732 18.3847 3.57861 18.4791C3.84557 18.6508 4.02355 18.6508 11.0626 18.668C15.0315 18.6851 18.3686 18.7109 18.4932 18.7452C18.6267 18.771 19.4543 19.5007 22.2397 22.1705L34.5736 22.2564L35.0987 22.6599C35.3923 22.8745 35.8017 23.1063 36.0241 23.1664C36.2466 23.2179 36.5759 23.2436 36.7539 23.2093C36.9407 23.1835 37.2611 23.029 37.4658 22.8831C37.6704 22.7285 37.9374 22.4109 38.062 22.1705C38.2222 21.8701 38.2934 21.6125 38.2845 21.3121C38.2845 21.0116 38.2133 20.7626 38.0442 20.4793C37.9107 20.2476 37.6437 19.9643 37.4302 19.8355C37.1454 19.6466 36.9318 19.5865 36.478 19.5608C35.9085 19.535 35.8729 19.5436 35.2855 19.9299C34.9207 20.1703 34.4757 20.3763 34.1287 20.4622C33.7015 20.5738 33.3545 20.5909 32.598 20.5566C31.9484 20.5223 31.6014 20.4622 31.5569 20.3935C31.5213 20.3334 31.4857 19.8784 31.4857 19.3805C31.4857 18.771 31.4501 18.4448 31.3789 18.3675C31.2899 18.2902 30.8005 18.2645 29.4567 18.2645C28.1664 18.2645 27.579 18.2988 27.3655 18.3761C27.2142 18.4448 26.876 18.6336 26.6358 18.7967C26.3866 18.9684 26.0306 19.1487 25.8349 19.2002C25.6391 19.2517 25.3365 19.2689 25.1674 19.2431C24.9984 19.2088 24.7136 19.1144 24.5445 19.0371C24.3754 18.9513 24.1441 18.7882 24.0462 18.6766C23.9394 18.5735 23.7792 18.3418 23.6902 18.1786C23.5834 17.9898 23.53 17.6893 23.53 17.3631C23.5211 16.9682 23.5745 16.7536 23.7436 16.4617C23.8771 16.2299 24.1174 15.9895 24.3665 15.8436C24.589 15.7148 24.945 15.5775 25.1674 15.5517C25.3899 15.526 25.7281 15.5431 25.9238 15.5947C26.1196 15.6376 26.5379 15.8436 27.4189 16.4188L37.1454 16.5046L37.5281 16.7622C37.7327 16.9081 38.0709 17.1056 38.2756 17.2172C38.5781 17.3803 38.7561 17.4146 39.1833 17.3889C39.4769 17.3717 39.8774 17.2773 40.0732 17.1914C40.2689 17.097 40.5448 16.8566 40.6961 16.642C40.883 16.3759 40.972 16.1441 40.9986 15.8264C41.0164 15.5861 40.9809 15.2341 40.9097 15.0452C40.8474 14.8564 40.6872 14.5902 40.5626 14.4529C40.438 14.3155 40.18 14.1267 39.9842 14.0408C39.735 13.9206 39.4502 13.8691 39.0498 13.8691C38.5069 13.8691 38.4358 13.8949 37.4035 14.616L27.7481 14.6589C22.4355 14.6847 18.0839 14.7104 18.0661 14.7276C18.0572 14.7362 17.8614 14.9079 17.6211 15.1053C17.3898 15.2942 17.0694 15.5088 16.9092 15.5775C16.7579 15.6376 16.402 15.6891 16.135 15.6891C15.8235 15.6891 15.5121 15.629 15.2896 15.5174C15.0938 15.423 14.8269 15.2427 14.7023 15.1139C14.5777 14.9766 14.4175 14.7448 14.3463 14.5988C14.2751 14.4443 14.2217 14.1438 14.2217 13.9292C14.2217 13.7146 14.2751 13.4141 14.3374 13.2682C14.3997 13.1137 14.5688 12.839 14.7201 12.6587C14.8625 12.4784 15.1383 12.2552 15.3341 12.1608C15.5299 12.0749 15.8769 11.9977 16.1083 11.9977C16.3486 11.9977 16.6867 12.0578 16.8647 12.135C17.0516 12.2123 17.4165 12.4441 18.1373 13.0278H23.6101C28.024 13.0278 29.1364 13.0021 29.3766 12.9076C29.5368 12.8476 30.311 12.1436 31.1297 11.3366C32.2154 10.2636 32.7137 9.82574 33.043 9.67122C33.4079 9.50811 33.657 9.46518 34.4223 9.44801C34.9385 9.43943 35.4101 9.42226 35.4724 9.42226C35.5258 9.42226 35.7661 9.27632 35.9974 9.09604C36.2377 8.91576 36.5581 8.70115 36.7094 8.62388C36.8695 8.53804 37.1988 8.47794 37.448 8.47794C37.706 8.47794 38.0353 8.54662 38.2222 8.64105C38.4091 8.7269 38.7116 8.95869 38.8896 9.15613C39.0765 9.35358 39.2723 9.67122 39.3256 9.87725C39.379 10.0747 39.4057 10.4095 39.3701 10.6241C39.3434 10.8473 39.2189 11.1478 39.0765 11.3452C38.943 11.5255 38.6226 11.7916 38.3824 11.9204C38.0531 12.1093 37.8217 12.1694 37.4658 12.1694C37.2166 12.1694 36.8517 12.1093 36.6649 12.032C36.4869 11.9633 36.1576 11.7573 35.9351 11.5856C35.6059 11.3281 35.4457 11.268 35.0453 11.2422C34.7783 11.225 34.3956 11.2508 34.1999 11.2937C34.0041 11.3452 33.6481 11.5169 33.399 11.6714C33.1587 11.826 32.8472 12.1264 32.7048 12.3411C32.5447 12.5728 32.4646 12.7875 32.5002 12.8819C32.5536 13.0192 32.9629 13.0278 39.4057 13.0278C45.8486 13.0278 46.2579 13.0192 46.3113 12.8819C46.3469 12.796 46.1867 12.2209 45.9554 11.5942C45.7329 10.9675 45.3858 10.1348 45.1901 9.74848C44.9943 9.35358 44.6205 8.76982 44.3624 8.4436C44.1133 8.1088 43.6772 7.67957 43.4103 7.47353C43.1433 7.27609 42.6983 7.00138 42.4314 6.88119C42.1644 6.75242 41.764 6.5979 41.5415 6.5378C41.319 6.46912 40.7406 6.38328 40.2511 6.33177C39.7617 6.28885 38.0709 6.24592 36.4958 6.24592C34.6982 6.24592 33.5324 6.28026 33.3812 6.33177C33.2388 6.38328 32.429 7.09581 31.5747 7.91994C30.5869 8.87284 29.8928 9.46518 29.6881 9.55103C29.3855 9.66263 28.1308 9.6798 9.01586 9.67122L8.7044 9.88583C8.53532 10.006 8.19716 10.2206 7.94799 10.3666C7.58313 10.5726 7.40515 10.6241 6.9691 10.6241C6.62205 10.6241 6.30168 10.5554 6.06141 10.4524C5.83894 10.3494 5.58977 10.1434 5.45628 9.96309C5.3317 9.78282 5.18931 9.42226 5.12702 9.16472C5.04693 8.79558 5.04693 8.60671 5.13592 8.30625C5.18931 8.09163 5.36729 7.76541 5.52747 7.58513C5.68765 7.39627 5.97242 7.17307 6.1682 7.08722C6.36397 7.00996 6.73773 6.9327 6.9958 6.9327C7.24497 6.9327 7.55643 6.97562 7.68102 7.01854C7.8056 7.07005 8.10817 7.27609 8.34844 7.4907C8.64211 7.74824 8.87348 7.87701 9.04256 7.87701C9.17604 7.87701 13.5988 7.87701 18.8759 7.87701C28.3711 7.87701 28.46 7.87701 28.8427 7.69674C29.0474 7.6023 29.4656 7.31901 29.7771 7.07864C30.1775 6.761 30.3288 6.58073 30.311 6.46054C30.2843 6.28885 30.2042 6.28885 19.7391 6.24592L19.2763 6.55497C19.0183 6.72667 18.689 6.92411 18.5377 7.00138C18.3953 7.07005 18.0483 7.13015 17.7813 7.13015C17.4076 7.13873 17.1762 7.07864 16.8113 6.88119C16.5444 6.74383 16.2329 6.49488 16.1172 6.33177C16.0104 6.16866 15.8858 5.84244 15.8591 5.60207C15.8235 5.31019 15.8591 5.05265 15.957 4.78652C16.0371 4.57191 16.2151 4.26286 16.3486 4.09975C16.4821 3.93664 16.7935 3.70485 17.0338 3.59325C17.372 3.43873 17.5766 3.3958 17.9237 3.42156C18.2263 3.44731 18.4843 3.53316 18.7246 3.68768C18.9115 3.81645 19.1873 4.0139 19.3208 4.11692C19.5611 4.30578 19.6679 4.31437 21.2341 4.34012C22.1507 4.35729 22.9872 4.34871 23.1029 4.32295C23.2097 4.2972 23.2987 4.21993 23.2987 4.16843C23.3076 4.10833 23.0228 3.79928 22.6757 3.48165C22.2753 3.10392 21.9282 2.86355 21.7235 2.80346C21.5011 2.74337 19.9616 2.7262 13.0026 2.76912L12.7 3.00949C12.5309 3.13826 12.2551 3.3443 12.086 3.4559C11.9169 3.57608 11.6321 3.69627 11.4631 3.72202C11.294 3.74778 10.9825 3.73061 10.7779 3.6791C10.5198 3.61901 10.2617 3.4559 9.99474 3.19836C9.70108 2.91506 9.55869 2.68327 9.45191 2.32272C9.32732 1.90207 9.31842 1.74754 9.40741 1.35265C9.46081 1.07794 9.61209 0.751719 9.75447 0.580025C9.89685 0.416916 10.146 0.210883 10.3151 0.125036C10.5376 0.0134353 10.7867 -0.0123188 11.2851 0.00485055ZM10.6533 1.79047C10.6622 1.92782 10.7423 2.11669 10.8401 2.21112C10.938 2.30555 11.1249 2.38281 11.2673 2.38281C11.4008 2.3914 11.5877 2.30555 11.6855 2.20253C11.7834 2.1081 11.8635 1.91065 11.8635 1.7733C11.8635 1.64453 11.8012 1.47283 11.73 1.40416C11.6588 1.33548 11.4987 1.25822 11.3741 1.22388C11.2139 1.18954 11.0715 1.22388 10.8935 1.35265C10.7156 1.48142 10.6444 1.61019 10.6533 1.79047ZM17.1584 5.30161C17.1584 5.39604 17.2563 5.56773 17.3809 5.68792C17.5054 5.8081 17.6745 5.90253 17.7635 5.90253C17.8436 5.91112 18.0216 5.83386 18.164 5.73084C18.3152 5.62782 18.4042 5.48188 18.4042 5.34453C18.4042 5.22434 18.3064 5.03548 18.1818 4.9153C18.0572 4.79511 17.8792 4.70068 17.7813 4.70068C17.6745 4.70068 17.4965 4.79511 17.3809 4.9153C17.2652 5.0269 17.1673 5.19859 17.1584 5.30161ZM6.37287 8.80416C6.38177 8.95869 6.45296 9.13896 6.52415 9.20764C6.59535 9.27632 6.73773 9.35358 6.83562 9.37934C6.93351 9.40509 7.12039 9.37075 7.26277 9.30207C7.40515 9.2334 7.52974 9.08746 7.56533 8.94152C7.60983 8.76124 7.58313 8.63247 7.46744 8.47794C7.36066 8.332 7.20937 8.25474 6.9958 8.23757C6.79112 8.2204 6.63984 8.26333 6.52415 8.37493C6.42627 8.46936 6.36398 8.64105 6.37287 8.80416ZM36.8161 10.3752C36.825 10.4696 36.9051 10.6155 37.003 10.71C37.1098 10.813 37.2967 10.8817 37.4925 10.8817C37.7149 10.8817 37.8395 10.8301 37.9374 10.6928C38.0086 10.5812 38.0709 10.4181 38.0709 10.3237C38.0709 10.2292 38.0086 10.0661 37.9374 9.96309C37.8395 9.81715 37.7149 9.76565 37.5014 9.76565C37.2789 9.76565 37.1365 9.82574 37.003 9.98885C36.8962 10.1176 36.8072 10.2893 36.8161 10.3752ZM15.6545 13.4656C15.6011 13.5343 15.5655 13.7146 15.5744 13.8777C15.5922 14.0666 15.6812 14.2297 15.8235 14.3413C16.0015 14.4701 16.0994 14.4872 16.313 14.4271C16.4554 14.3842 16.6333 14.2554 16.7045 14.1353C16.7757 14.0151 16.8024 13.8348 16.7668 13.6974C16.7401 13.5515 16.6067 13.4056 16.4465 13.3283C16.2952 13.2596 16.1706 13.1995 16.1528 13.2081C16.1439 13.2081 16.046 13.2424 15.9392 13.2854C15.8324 13.3197 15.7079 13.4056 15.6545 13.4656ZM46.4359 16.994C45.9732 17.1399 45.3324 17.4146 45.0121 17.6035C44.6917 17.7923 44.0332 18.2473 43.5438 18.625C43.0543 18.9942 42.4848 19.5007 42.2712 19.7496C42.0576 19.9986 41.7907 20.4021 41.6661 20.651C41.5504 20.8914 41.4614 21.1661 41.4792 21.252C41.497 21.3807 41.6216 21.3979 42.3869 21.4237C42.8763 21.4408 43.695 21.4065 44.2112 21.355C44.7273 21.2949 45.5282 21.1575 45.991 21.0459C46.4537 20.9257 47.0944 20.7111 47.4148 20.5566C47.8063 20.3763 48.2157 20.0759 48.6606 19.638C49.0522 19.2603 49.4259 18.7967 49.5683 18.522C49.7018 18.2645 49.8531 17.8353 49.9065 17.5777C49.9599 17.3202 49.9777 16.994 49.9421 16.848C49.9154 16.7107 49.8442 16.539 49.7819 16.4789C49.7196 16.4102 49.4882 16.3673 49.1501 16.3759C48.8564 16.3844 48.3136 16.4617 47.9487 16.5561C47.5839 16.642 46.8986 16.8394 46.4359 16.994ZM24.8649 17.4146C24.8738 17.6121 24.945 17.758 25.0873 17.861C25.203 17.9469 25.3632 18.0155 25.4344 18.0155C25.5056 18.0155 25.6747 17.9383 25.8171 17.8353C25.9861 17.7151 26.0573 17.5863 26.0573 17.406C26.0573 17.2601 25.9772 17.0712 25.8793 16.9768C25.7815 16.8824 25.6035 16.8051 25.4878 16.8051C25.3721 16.8051 25.1852 16.8738 25.0695 16.9596C24.9094 17.0798 24.856 17.2 24.8649 17.4146ZM1.30048 19.6209C1.30938 19.7239 1.41616 19.9042 1.54075 20.0244C1.66533 20.1445 1.86111 20.239 1.9857 20.239C2.11028 20.239 2.28826 20.1617 2.38615 20.0673C2.49294 19.9643 2.56413 19.7754 2.56413 19.6209C2.57303 19.4578 2.50183 19.2775 2.41284 19.1916C2.32385 19.1058 2.12808 19.0371 1.9768 19.0371C1.80772 19.0371 1.62084 19.1144 1.49625 19.2346C1.38057 19.3462 1.29158 19.5179 1.30048 19.6209ZM10.2083 23.0977C10.2083 23.2522 10.2795 23.4325 10.3685 23.5183C10.4575 23.5956 10.591 23.6728 10.6622 23.6814C10.7334 23.6986 10.8935 23.6814 11.0181 23.6557C11.1427 23.6213 11.294 23.5012 11.3563 23.381C11.4097 23.2608 11.4631 23.1063 11.4631 23.0548C11.4631 22.9947 11.3919 22.8573 11.3029 22.7543C11.2228 22.6513 11.0537 22.5397 10.9291 22.5139C10.769 22.4796 10.6266 22.5139 10.4486 22.6427C10.2617 22.78 10.1994 22.9002 10.2083 23.0977ZM21.7413 26.7633C21.768 26.8835 21.8481 27.0209 21.9015 27.081C21.9638 27.1325 22.1062 27.2097 22.2308 27.2355C22.3821 27.2698 22.5333 27.2355 22.7024 27.1153C22.8715 26.9865 22.9427 26.8578 22.9427 26.6775C22.9427 26.5316 22.8626 26.3427 22.7647 26.2483C22.6668 26.1538 22.4711 26.0766 22.3287 26.0766C22.1418 26.0766 22.0083 26.1538 21.8748 26.3169C21.7413 26.48 21.7057 26.6174 21.7413 26.7633ZM10.7956 30.2831C10.8223 30.4032 10.9202 30.5492 11.0003 30.6093C11.0804 30.6694 11.2495 30.7123 11.3741 30.7123C11.4987 30.7123 11.6677 30.6694 11.7478 30.6093C11.8279 30.5492 11.9258 30.4032 11.9525 30.2831C11.9881 30.1371 11.9525 29.9912 11.8279 29.8367C11.6944 29.665 11.561 29.5963 11.383 29.5963C11.1961 29.5963 11.0626 29.6735 10.9291 29.8367C10.7956 29.9998 10.7601 30.1371 10.7956 30.2831Z" fill="white"/>
<path d="M38.3735 15.4573C38.4002 15.3457 38.5158 15.1826 38.6226 15.0882C38.7294 14.9937 38.9341 14.9165 39.0676 14.9165C39.2011 14.9165 39.379 14.9422 39.4591 14.9766C39.5392 15.0195 39.6638 15.1482 39.7261 15.277C39.7973 15.4144 39.8329 15.629 39.8062 15.7749C39.7795 15.9209 39.6727 16.0926 39.5659 16.1612C39.4502 16.2299 39.2545 16.29 39.121 16.29C38.9786 16.29 38.8095 16.2643 38.7294 16.2299C38.6493 16.187 38.5247 16.0496 38.4536 15.9037C38.3824 15.7578 38.3468 15.5603 38.3735 15.4573Z" fill="white"/>
<path d="M35.775 21.003C35.8373 20.9257 35.9707 20.8227 36.0686 20.7712C36.1665 20.7197 36.3 20.6682 36.3623 20.6682C36.4157 20.6682 36.5759 20.7197 36.7183 20.7884C36.8517 20.8485 36.9852 20.9687 37.0297 21.0459C37.0653 21.1232 37.092 21.2863 37.092 21.4151C37.092 21.5524 37.0297 21.7413 36.9585 21.8443C36.8873 21.9559 36.7005 22.0589 36.5581 22.0847C36.4157 22.1104 36.1843 22.0761 36.0508 22.0074C35.9085 21.9473 35.775 21.8271 35.7394 21.7499C35.6949 21.6726 35.6682 21.5095 35.6682 21.3722C35.6682 21.2434 35.7127 21.0803 35.775 21.003Z" fill="white"/>
<path d="M44.9231 24.8747C44.932 24.7116 45.021 24.5227 45.1456 24.4025C45.3057 24.2394 45.457 24.1879 45.724 24.1879C46.0088 24.1879 46.1155 24.2309 46.2579 24.4197C46.3647 24.5571 46.4448 24.7631 46.4359 24.8919C46.4359 25.0292 46.3469 25.2267 46.2401 25.3383C46.1244 25.4585 45.9554 25.5615 45.8575 25.5701C45.7596 25.5787 45.6083 25.5787 45.5282 25.5701C45.4392 25.5701 45.2701 25.4671 45.1456 25.3469C45.0032 25.2095 44.9231 25.0378 44.9231 24.8747Z" fill="white"/>
<path d="M64.128 9.216C63.432 9.216 62.82 9.072 62.292 8.784C61.764 8.488 61.352 8.076 61.056 7.548C60.768 7.02 60.624 6.416 60.624 5.736C60.624 4.792 60.836 3.936 61.26 3.168C61.692 2.392 62.284 1.784 63.036 1.344C63.788 0.896 64.628 0.672 65.556 0.672C66.26 0.672 66.876 0.82 67.404 1.116C67.94 1.404 68.352 1.812 68.64 2.34C68.928 2.86 69.072 3.46 69.072 4.14C69.072 5.092 68.856 5.956 68.424 6.732C68 7.5 67.412 8.108 66.66 8.556C65.908 8.996 65.064 9.216 64.128 9.216ZM64.284 8.232C64.988 8.232 65.616 8.052 66.168 7.692C66.728 7.324 67.164 6.832 67.476 6.216C67.788 5.6 67.944 4.932 67.944 4.212C67.944 3.42 67.716 2.796 67.26 2.34C66.804 1.884 66.184 1.656 65.4 1.656C64.696 1.656 64.064 1.84 63.504 2.208C62.952 2.568 62.52 3.056 62.208 3.672C61.904 4.28 61.752 4.944 61.752 5.664C61.752 6.456 61.976 7.084 62.424 7.548C62.88 8.004 63.5 8.232 64.284 8.232Z" fill="white"/>
<path d="M71.4016 7.332C71.3776 7.452 71.3656 7.556 71.3656 7.644C71.3656 7.844 71.4256 7.988 71.5456 8.076C71.6736 8.164 71.8776 8.208 72.1576 8.208H72.9616L72.7936 9.132H71.8096C71.2896 9.132 70.8976 9.032 70.6336 8.832C70.3776 8.632 70.2496 8.304 70.2496 7.848C70.2496 7.672 70.2656 7.5 70.2976 7.332L70.9816 3.456H70.1416L70.2976 2.556H71.1496L71.4376 0.9H72.5416L72.2536 2.556H73.9576L73.8016 3.456H72.0856L71.4016 7.332Z" fill="white"/>
<path d="M77.0087 9.24C76.4567 9.24 75.9687 9.128 75.5447 8.904C75.1287 8.672 74.8047 8.352 74.5727 7.944C74.3407 7.528 74.2247 7.048 74.2247 6.504C74.2247 5.76 74.3967 5.08 74.7407 4.464C75.0847 3.84 75.5567 3.348 76.1567 2.988C76.7647 2.628 77.4407 2.448 78.1847 2.448C78.7367 2.448 79.2247 2.564 79.6487 2.796C80.0807 3.02 80.4127 3.34 80.6447 3.756C80.8847 4.164 81.0047 4.644 81.0047 5.196C81.0047 5.94 80.8287 6.62 80.4767 7.236C80.1247 7.852 79.6447 8.34 79.0367 8.7C78.4287 9.06 77.7527 9.24 77.0087 9.24ZM77.1407 8.316C77.6607 8.316 78.1287 8.176 78.5447 7.896C78.9607 7.608 79.2847 7.232 79.5167 6.768C79.7567 6.296 79.8767 5.792 79.8767 5.256C79.8767 4.648 79.7007 4.184 79.3487 3.864C78.9967 3.536 78.5567 3.372 78.0287 3.372C77.5087 3.372 77.0447 3.516 76.6367 3.804C76.2287 4.084 75.9127 4.46 75.6887 4.932C75.4647 5.404 75.3527 5.912 75.3527 6.456C75.3527 7.048 75.5207 7.508 75.8567 7.836C76.1927 8.156 76.6207 8.316 77.1407 8.316Z" fill="white"/>
<path d="M92.1107 2.892C92.0227 3.388 91.8147 3.8 91.4867 4.128C91.1667 4.448 90.7747 4.68 90.3107 4.824C90.7027 4.888 91.0227 5.08 91.2707 5.4C91.5187 5.712 91.6427 6.084 91.6427 6.516C91.6427 6.644 91.6307 6.768 91.6067 6.888C91.5347 7.312 91.3587 7.696 91.0787 8.04C90.8067 8.376 90.4467 8.644 89.9987 8.844C89.5507 9.036 89.0467 9.132 88.4867 9.132H85.3667L86.8547 0.768H89.8547C90.6067 0.768 91.1747 0.928 91.5587 1.248C91.9507 1.568 92.1467 1.984 92.1467 2.496C92.1467 2.624 92.1347 2.756 92.1107 2.892ZM90.9827 3.024C90.9987 2.952 91.0067 2.852 91.0067 2.724C91.0067 2.38 90.8867 2.112 90.6467 1.92C90.4067 1.728 90.0587 1.632 89.6027 1.632H87.7907L87.2987 4.404H89.1347C89.6387 4.404 90.0547 4.284 90.3827 4.044C90.7107 3.796 90.9107 3.456 90.9827 3.024ZM90.5267 6.78C90.5507 6.668 90.5627 6.564 90.5627 6.468C90.5627 6.1 90.4267 5.808 90.1547 5.592C89.8827 5.376 89.5107 5.268 89.0387 5.268H87.1427L86.6147 8.268H88.5467C89.0827 8.268 89.5267 8.136 89.8787 7.872C90.2307 7.608 90.4467 7.244 90.5267 6.78Z" fill="white"/>
<path d="M96.7461 2.448C97.2981 2.448 97.7741 2.556 98.1741 2.772C98.5821 2.98 98.8901 3.276 99.0981 3.66C99.3141 4.036 99.4221 4.468 99.4221 4.956C99.4221 5.124 99.4021 5.328 99.3621 5.568C99.3301 5.776 99.2781 5.992 99.2061 6.216H93.9501C93.9341 6.376 93.9261 6.492 93.9261 6.564C93.9261 7.116 94.0901 7.548 94.4181 7.86C94.7541 8.164 95.1901 8.316 95.7261 8.316C96.1981 8.316 96.6101 8.208 96.9621 7.992C97.3221 7.768 97.5941 7.472 97.7781 7.104H98.9541C98.6661 7.736 98.2221 8.252 97.6221 8.652C97.0301 9.044 96.3421 9.24 95.5581 9.24C94.7341 9.24 94.0701 9.004 93.5661 8.532C93.0701 8.052 92.8221 7.4 92.8221 6.576C92.8221 6.344 92.8461 6.096 92.8941 5.832C93.0141 5.152 93.2581 4.556 93.6261 4.044C93.9941 3.532 94.4461 3.14 94.9821 2.868C95.5261 2.588 96.1141 2.448 96.7461 2.448ZM98.2581 5.424C98.2821 5.264 98.2941 5.116 98.2941 4.98C98.2941 4.468 98.1301 4.072 97.8021 3.792C97.4821 3.512 97.0621 3.372 96.5421 3.372C95.9821 3.372 95.4741 3.556 95.0181 3.924C94.5621 4.284 94.2541 4.784 94.0941 5.424H98.2581Z" fill="white"/>
<path d="M101.763 2.556L102.879 7.86L105.867 2.556H106.995L101.331 12.228H100.191L102.051 9.06L100.551 2.556H101.763Z" fill="white"/>
<path d="M108.837 1.488C108.661 1.488 108.513 1.432 108.393 1.32C108.281 1.2 108.225 1.052 108.225 0.876C108.225 0.636 108.313 0.432 108.489 0.264C108.665 0.0880001 108.869 0 109.101 0C109.285 0 109.433 0.056 109.545 0.168C109.657 0.28 109.713 0.428 109.713 0.612C109.713 0.852 109.625 1.06 109.449 1.236C109.273 1.404 109.069 1.488 108.837 1.488ZM109.185 2.556L108.021 9.132H106.929L108.093 2.556H109.185Z" fill="white"/>
<path d="M114.274 2.436C114.954 2.436 115.498 2.62 115.906 2.988C116.314 3.348 116.518 3.876 116.518 4.572C116.518 4.828 116.498 5.056 116.458 5.256L115.774 9.132H114.694L115.354 5.412C115.386 5.244 115.402 5.068 115.402 4.884C115.402 4.396 115.266 4.024 114.994 3.768C114.73 3.512 114.358 3.384 113.878 3.384C113.302 3.384 112.81 3.564 112.402 3.924C112.002 4.284 111.742 4.808 111.622 5.496V5.472L110.974 9.132H109.882L111.046 2.556H112.138L111.97 3.504C112.242 3.16 112.582 2.896 112.99 2.712C113.398 2.528 113.826 2.436 114.274 2.436Z" fill="white"/>
<path d="M66.118 24.128L72.029 32.132H69.292L64.002 24.818L62.691 32.132H60.598L63.45 16.101H65.543L64.232 23.507L72.167 16.101H74.789L66.118 24.128Z" fill="#F2A405"/>
<path d="M79.4726 15.112L76.4596 32.132H74.3666L77.3796 15.112H79.4726Z" fill="#F2A405"/>
<path d="M83.6837 17.481C83.3464 17.481 83.0627 17.3737 82.8327 17.159C82.6181 16.929 82.5107 16.6453 82.5107 16.308C82.5107 15.848 82.6794 15.457 83.0167 15.135C83.3541 14.7977 83.7451 14.629 84.1897 14.629C84.5424 14.629 84.8261 14.7363 85.0407 14.951C85.2554 15.1657 85.3627 15.4493 85.3627 15.802C85.3627 16.262 85.1941 16.6607 84.8567 16.998C84.5194 17.32 84.1284 17.481 83.6837 17.481ZM84.3507 19.528L82.1197 32.132H80.0267L82.2577 19.528H84.3507Z" fill="#F2A405"/>
<path d="M94.1049 19.298C95.4082 19.298 96.4509 19.6507 97.2329 20.356C98.0149 21.046 98.4059 22.058 98.4059 23.392C98.4059 23.8827 98.3676 24.3197 98.2909 24.703L96.9799 32.132H94.9099L96.1749 25.002C96.2362 24.68 96.2669 24.3427 96.2669 23.99C96.2669 23.0547 96.0062 22.3417 95.4849 21.851C94.9789 21.3603 94.2659 21.115 93.3459 21.115C92.2419 21.115 91.2989 21.46 90.5169 22.15C89.7502 22.84 89.2519 23.8443 89.0219 25.163V25.117L87.7799 32.132H85.6869L87.9179 19.528H90.0109L89.6889 21.345C90.2102 20.6857 90.8619 20.1797 91.6439 19.827C92.4259 19.4743 93.2462 19.298 94.1049 19.298Z" fill="#F2A405"/>
<path d="M104.056 17.481C103.718 17.481 103.435 17.3737 103.205 17.159C102.99 16.929 102.883 16.6453 102.883 16.308C102.883 15.848 103.051 15.457 103.389 15.135C103.726 14.7977 104.117 14.629 104.562 14.629C104.914 14.629 105.198 14.7363 105.413 14.951C105.627 15.1657 105.735 15.4493 105.735 15.802C105.735 16.262 105.566 16.6607 105.229 16.998C104.891 17.32 104.5 17.481 104.056 17.481ZM104.723 19.528L102.492 32.132H100.399L102.63 19.528H104.723Z" fill="#F2A405"/>
<path d="M111.119 25.83L115.949 32.132H113.097L109.141 26.589L108.152 32.132H106.059L109.072 15.112H111.165L109.394 25.094L115.236 19.528H118.134L111.119 25.83Z" fill="#F2A405"/>
</svg>
